<svg xmlns="http://www.w3.org/2000/svg" xmlns:xlink="http://www.w3.org/1999/xlink" viewBox="0 0 100 100">
<g transform="translate(0,0)"><g transform="translate(0,0)"><g transform="translate(0,0)"><g transform="translate(0,0)"><g transform="translate(0,0)"><g transform="translate(0,0)"><g transform="translate(0,0)"><g transform="translate(0,0)"><g transform="translate(0,0)"><g transform="translate(0,0)"><g transform="translate(0,0)"><g transform="translate(0,0)"><g transform="translate(0,0)"><g transform="translate(0,0)"><g transform="translate(0,0)"><g transform="translate(0,0)"><g transform="translate(0,0)"><g transform="translate(0,0)"><g transform="translate(0,0)"><g transform="translate(0,0)"><g transform="translate(0,0)"><g transform="translate(0,0)"><g transform="translate(0,0)"><g transform="translate(0,0)"><g transform="translate(0,0)"><g transform="translate(0,0)"><g transform="translate(0,0)"><g transform="translate(0,0)"><g transform="translate(0,0)"><g transform="translate(0,0)"><g transform="translate(0,0)"><g transform="translate(0,0)"><g transform="translate(0,0)"><g transform="translate(0,0)"><g transform="translate(0,0)"><g transform="translate(0,0)"><g transform="translate(0,0)"><g transform="translate(0,0)"><g transform="translate(0,0)"><g transform="translate(0,0)"><g transform="translate(0,0)"><g transform="translate(0,0)"><g transform="translate(0,0)"><g transform="translate(0,0)"><g transform="translate(0,0)"><g transform="translate(0,0)"><g transform="translate(0,0)"><g transform="translate(0,0)"><g transform="translate(0,0)"><g transform="translate(0,0)"><g transform="translate(0,0)"><g transform="translate(0,0)"><g transform="translate(0,0)"><g transform="translate(0,0)"><g transform="translate(0,0)"><g transform="translate(0,0)"><g transform="translate(0,0)"><g transform="translate(0,0)"><g transform="translate(0,0)"><g transform="translate(0,0)"><g transform="translate(0,0)"><g transform="translate(0,0)"><g transform="translate(0,0)"><g transform="translate(0,0)"><g transform="translate(0,0)"><g transform="translate(0,0)"><g transform="translate(0,0)"><g transform="translate(0,0)"><g transform="translate(0,0)"><g transform="translate(0,0)"><g transform="translate(0,0)"><g transform="translate(0,0)"><g transform="translate(0,0)"><g transform="translate(0,0)"><g transform="translate(0,0)"><g transform="translate(0,0)"><g transform="translate(0,0)"><g transform="translate(0,0)"><g transform="translate(0,0)"><g transform="translate(0,0)"><g transform="translate(0,0)"><g transform="translate(0,0)"><g transform="translate(0,0)"><g transform="translate(0,0)"><g transform="translate(0,0)"><g transform="translate(0,0)"><g transform="translate(0,0)"><g transform="translate(0,0)"><g transform="translate(0,0)"><g transform="translate(0,0)"><g transform="translate(0,0)"><g transform="translate(0,0)"><g transform="translate(0,0)"><g transform="translate(0,0)"><g transform="translate(0,0)"><g transform="translate(0,0)"><g transform="translate(0,0)"><g transform="translate(0,0)"><g transform="translate(0,0)"><g transform="translate(0,0)"><g transform="translate(0,0)"><g transform="translate(0,0)"><g transform="translate(0,0)"><g transform="translate(0,0)"><g transform="translate(0,0)"><g transform="translate(0,0)"><g transform="translate(0,0)"><g transform="translate(0,0)"><g transform="translate(0,0)"><g transform="translate(0,0)"><g transform="translate(0,0)"><g transform="translate(0,0)"><g transform="translate(0,0)"><g transform="translate(0,0)"><g transform="translate(0,0)"><g transform="translate(0,0)"><g transform="translate(0,0)"><g transform="translate(0,0)"><g transform="translate(0,0)"><g transform="translate(0,0)"><g transform="translate(0,0)"><g transform="translate(0,0)"><g transform="translate(0,0)"><g transform="translate(0,0)"><g transform="translate(0,0)"><g transform="translate(0,0)"><g transform="translate(0,0)"><g transform="translate(0,0)"><g transform="translate(0,0)"><g transform="translate(0,0)"><g transform="translate(0,0)"><g transform="translate(0,0)"><g transform="translate(0,0)"><g transform="translate(0,0)"><g transform="translate(0,0)"><g transform="translate(0,0)"><g transform="translate(0,0)"><g transform="translate(0,0)"><g transform="translate(0,0)"><g transform="translate(0,0)"><g transform="translate(0,0)"><g transform="translate(0,0)"><g transform="translate(0,0)"><g transform="translate(0,0)"><g transform="translate(0,0)"><g transform="translate(0,0)"><g transform="translate(0,0)"><g transform="translate(0,0)"><g transform="translate(0,0)"><g transform="translate(0,0)"><g transform="translate(0,0)"><g transform="translate(0,0)"><g transform="translate(0,0)"><g transform="translate(0,0)"><g transform="translate(0,0)"><g transform="translate(0,0)"><g transform="translate(0,0)"><g transform="translate(0,0)"><g transform="translate(0,0)"><g transform="translate(0,0)"><g transform="translate(0,0)"><g transform="translate(0,0)"><g transform="translate(0,0)"><g transform="translate(0,0)"><g transform="translate(0,0)"><g transform="translate(0,0)"><g transform="translate(0,0)"><g transform="translate(0,0)"><g transform="translate(0,0)"><g transform="translate(0,0)"><g transform="translate(0,0)"><g transform="translate(0,0)"><g transform="translate(0,0)"><g transform="translate(0,0)"><g transform="translate(0,0)"><g transform="translate(0,0)"><g transform="translate(0,0)"><g transform="translate(0,0)"><g transform="translate(0,0)"><g transform="translate(0,0)"><g transform="translate(0,0)"><g transform="translate(0,0)"><g transform="translate(0,0)"><g transform="translate(0,0)"><g transform="translate(0,0)"><g transform="translate(0,0)"><g transform="translate(0,0)"><g transform="translate(0,0)"><g transform="translate(0,0)"><g transform="translate(0,0)"><g transform="translate(0,0)"><g transform="translate(0,0)"><g transform="translate(0,0)"><g transform="translate(0,0)"><g transform="translate(0,0)"><g transform="translate(0,0)"><g transform="translate(0,0)"><g transform="translate(0,0)"><g transform="translate(0,0)"><g transform="translate(0,0)"><g transform="translate(0,0)"><g transform="translate(0,0)"><g transform="translate(0,0)"><g transform="translate(0,0)"><g transform="translate(0,0)"><g transform="translate(0,0)"><g transform="translate(0,0)"><g transform="translate(0,0)"><g transform="translate(0,0)"><g transform="translate(0,0)"><g transform="translate(0,0)"><g transform="translate(0,0)"><g transform="translate(0,0)"><g transform="translate(0,0)"><g transform="translate(0,0)"><g transform="translate(0,0)"><g transform="translate(0,0)"><g transform="translate(0,0)"><g transform="translate(0,0)"><g transform="translate(0,0)"><g transform="translate(0,0)"><g transform="translate(0,0)"><g transform="translate(0,0)"><g transform="translate(0,0)"><g transform="translate(0,0)"><g transform="translate(0,0)"><g transform="translate(0,0)"><g transform="translate(0,0)"><g transform="translate(0,0)"><g transform="translate(0,0)"><g transform="translate(0,0)"><g transform="translate(0,0)"><g transform="translate(0,0)"><g transform="translate(0,0)"><g transform="translate(0,0)"><g transform="translate(0,0)"><g transform="translate(0,0)"><g transform="translate(0,0)"><g transform="translate(0,0)"><g transform="translate(0,0)"><g transform="translate(0,0)"><g transform="translate(0,0)"><g transform="translate(0,0)"><g transform="translate(0,0)"><g transform="translate(0,0)"><g transform="translate(0,0)"><g transform="translate(0,0)"><g transform="translate(0,0)"><g transform="translate(0,0)"><g transform="translate(0,0)"><g transform="translate(0,0)"><g transform="translate(0,0)"><g transform="translate(0,0)"><g transform="translate(0,0)"><g transform="translate(0,0)"><g transform="translate(0,0)"><g transform="translate(0,0)"><g transform="translate(0,0)"><g transform="translate(0,0)"><g transform="translate(0,0)"><g transform="translate(0,0)"><g transform="translate(0,0)"><g transform="translate(0,0)"><g transform="translate(0,0)"><g transform="translate(0,0)"><g transform="translate(0,0)"><g transform="translate(0,0)"><g transform="translate(0,0)"><g transform="translate(0,0)"><g transform="translate(0,0)"><g transform="translate(0,0)"><g transform="translate(0,0)"><g transform="translate(0,0)"><g transform="translate(0,0)"><g transform="translate(0,0)"><g transform="translate(0,0)"><g transform="translate(0,0)"><g transform="translate(0,0)"><g transform="translate(0,0)"><g transform="translate(0,0)"><g transform="translate(0,0)"><g transform="translate(0,0)"><g transform="translate(0,0)"><g transform="translate(0,0)"><g transform="translate(0,0)"><g transform="translate(0,0)"><g transform="translate(0,0)"><g transform="translate(0,0)"><g transform="translate(0,0)"><g transform="translate(0,0)"><g transform="translate(0,0)"><g transform="translate(0,0)"><g transform="translate(0,0)"><g transform="translate(0,0)"><g transform="translate(0,0)"><g transform="translate(0,0)"><g transform="translate(0,0)"><g transform="translate(0,0)"><g transform="translate(0,0)"><g transform="translate(0,0)"><g transform="translate(0,0)"><g transform="translate(0,0)"><g transform="translate(0,0)"><g transform="translate(0,0)"><g transform="translate(0,0)"><g transform="translate(0,0)"><g transform="translate(0,0)"><g transform="translate(0,0)"><g transform="translate(0,0)"><g transform="translate(0,0)"><g transform="translate(0,0)"><g transform="translate(0,0)"><g transform="translate(0,0)"><g transform="translate(0,0)"><g transform="translate(0,0)"><g transform="translate(0,0)"><g transform="translate(0,0)"><g transform="translate(0,0)"><g transform="translate(0,0)"><g transform="translate(0,0)"><g transform="translate(0,0)"><g transform="translate(0,0)"><g transform="translate(0,0)"><g transform="translate(0,0)"><g transform="translate(0,0)"><g transform="translate(0,0)"><g transform="translate(0,0)"><g transform="translate(0,0)"><g transform="translate(0,0)"><g transform="translate(0,0)"><g transform="translate(0,0)"><g transform="translate(0,0)"><g transform="translate(0,0)"><g transform="translate(0,0)"><g transform="translate(0,0)"><g transform="translate(0,0)"><g transform="translate(0,0)"><g transform="translate(0,0)"><g transform="translate(0,0)"><g transform="translate(0,0)"><g transform="translate(0,0)"><g transform="translate(0,0)"><g transform="translate(0,0)"><g transform="translate(0,0)"><g transform="translate(0,0)"><g transform="translate(0,0)"><g transform="translate(0,0)"><g transform="translate(0,0)"><g transform="translate(0,0)"><g transform="translate(0,0)"><g transform="translate(0,0)"><g transform="translate(0,0)"><g transform="translate(0,0)"><g transform="translate(0,0)"><g transform="translate(0,0)"><g transform="translate(0,0)"><g transform="translate(0,0)"><g transform="translate(0,0)"><g transform="translate(0,0)"><g transform="translate(0,0)"><g transform="translate(0,0)"><g transform="translate(0,0)"><g transform="translate(0,0)"><g transform="translate(0,0)"><g transform="translate(0,0)"><g transform="translate(0,0)"><g transform="translate(0,0)"><g transform="translate(0,0)"><g transform="translate(0,0)"><g transform="translate(0,0)"><g transform="translate(0,0)"><g transform="translate(0,0)"><g transform="translate(0,0)"><g transform="translate(0,0)"><g transform="translate(0,0)"><g transform="translate(0,0)"><g transform="translate(0,0)"><g transform="translate(0,0)"><g transform="translate(0,0)"><g transform="translate(0,0)"><g transform="translate(0,0)"><g transform="translate(0,0)"><g transform="translate(0,0)"><g transform="translate(0,0)"><g transform="translate(0,0)"><g transform="translate(0,0)"><g transform="translate(0,0)"><g transform="translate(0,0)"><g transform="translate(0,0)"><g transform="translate(0,0)"><g transform="translate(0,0)"><g transform="translate(0,0)"><g transform="translate(0,0)"><g transform="translate(0,0)"><g transform="translate(0,0)"><g transform="translate(0,0)"><g transform="translate(0,0)"><g transform="translate(0,0)"><g transform="translate(0,0)"><g transform="translate(0,0)"><circle cx="50" cy="50" r="20" fill="#494"/></g></g></g></g></g></g></g></g></g></g></g></g></g></g></g></g></g></g></g></g></g></g></g></g></g></g></g></g></g></g></g></g></g></g></g></g></g></g></g></g></g></g></g></g></g></g></g></g></g></g></g></g></g></g></g></g></g></g></g></g></g></g></g></g></g></g></g></g></g></g></g></g></g></g></g></g></g></g></g></g></g></g></g></g></g></g></g></g></g></g></g></g></g></g></g></g></g></g></g></g></g></g></g></g></g></g></g></g></g></g></g></g></g></g></g></g></g></g></g></g></g></g></g></g></g></g></g></g></g></g></g></g></g></g></g></g></g></g></g></g></g></g></g></g></g></g></g></g></g></g></g></g></g></g></g></g></g></g></g></g></g></g></g></g></g></g></g></g></g></g></g></g></g></g></g></g></g></g></g></g></g></g></g></g></g></g></g></g></g></g></g></g></g></g></g></g></g></g></g></g></g></g></g></g></g></g></g></g></g></g></g></g></g></g></g></g></g></g></g></g></g></g></g></g></g></g></g></g></g></g></g></g></g></g></g></g></g></g></g></g></g></g></g></g></g></g></g></g></g></g></g></g></g></g></g></g></g></g></g></g></g></g></g></g></g></g></g></g></g></g></g></g></g></g></g></g></g></g></g></g></g></g></g></g></g></g></g></g></g></g></g></g></g></g></g></g></g></g></g></g></g></g></g></g></g></g></g></g></g></g></g></g></g></g></g></g></g></g></g></g></g></g></g></g></g></g></g></g></g></g></g></g></g></g></g></g></g></g></g></g></g></g></g></g></g></g></g></g></g></g></g></g></g></g></g></g></g></g></g></g></g></g></g></g></g></g></g></g></g></g></g></g></g></g></g></g></g></g></g></g></g></g></g></g></g></g></g></g></g></g></g></g></g></g></g></g></g></g></g></g><rect width="100" height="100" fill="#efe"/>
</svg>
